<svg width="21" height="21" viewBox="0 0 21 21" fill="none" xmlns="http://www.w3.org/2000/svg">
<circle cx="10.5" cy="10.5" r="10.5" fill="#FFDA00"/>
<path d="M9.47507 10.469V9.413H9.82707C10.9344 9.413 11.4881 9.02067 11.4881 8.236C11.4881 7.89867 11.3671 7.62733 11.1251 7.422C10.8904 7.21667 10.6007 7.114 10.2561 7.114C9.94073 7.114 9.67307 7.20567 9.45307 7.389C9.2404 7.57233 9.09373 7.81433 9.01307 8.115L7.77007 7.796C7.9094 7.268 8.21373 6.839 8.68307 6.509C9.1524 6.179 9.69507 6.014 10.3111 6.014C11.0297 6.014 11.6274 6.201 12.1041 6.575C12.5807 6.949 12.8191 7.47333 12.8191 8.148C12.8191 8.566 12.6907 8.94 12.4341 9.27C12.1774 9.59267 11.8401 9.80533 11.4221 9.908V9.93C11.8987 10.0253 12.2837 10.2417 12.5771 10.579C12.8777 10.9163 13.0281 11.3233 13.0281 11.8C13.0281 12.5553 12.7567 13.1457 12.2141 13.571C11.6714 13.989 11.0371 14.198 10.3111 14.198C9.62173 14.198 9.02773 14.0477 8.52907 13.747C8.0304 13.4463 7.68207 12.9843 7.48407 12.361L8.71607 11.976C8.8114 12.2987 8.99473 12.5627 9.26607 12.768C9.5374 12.9733 9.87107 13.076 10.2671 13.076C10.6557 13.076 10.9894 12.9697 11.2681 12.757C11.5541 12.5443 11.6971 12.2217 11.6971 11.789C11.6971 11.4737 11.5907 11.2133 11.3781 11.008C11.1727 10.7953 10.9344 10.6523 10.6631 10.579C10.3991 10.5057 10.1131 10.469 9.80507 10.469H9.47507Z" fill="#414140"/>
</svg>
