<svg width="21" height="21" viewBox="0 0 21 21" fill="none" xmlns="http://www.w3.org/2000/svg">
<circle cx="10.5" cy="10.5" r="10.5" fill="#FFDA00"/>
<path d="M7.90207 14V12.79L10.9051 9.842C11.4331 9.32867 11.6971 8.819 11.6971 8.313C11.6971 7.95367 11.5797 7.664 11.3451 7.444C11.1104 7.224 10.8134 7.114 10.4541 7.114C10.0874 7.114 9.78673 7.23867 9.55207 7.488C9.32473 7.73 9.1854 8.049 9.13407 8.445L7.84707 8.247C7.92773 7.59433 8.21007 7.059 8.69407 6.641C9.17807 6.223 9.77207 6.014 10.4761 6.014C11.1947 6.014 11.8071 6.21567 12.3131 6.619C12.8191 7.02233 13.0721 7.57967 13.0721 8.291C13.0721 8.753 12.9621 9.16733 12.7421 9.534C12.5294 9.89333 12.2214 10.2637 11.8181 10.645L9.57407 12.79H13.0831V14H7.90207Z" fill="#414140"/>
</svg>
