<svg width="21" height="21" viewBox="0 0 21 21" fill="none" xmlns="http://www.w3.org/2000/svg">
<circle cx="10.5" cy="10.5" r="10.5" fill="#FFDA00"/>
<path d="M12.6981 6.212V7.4H9.51907L9.44207 9.083C9.68407 9.017 9.9884 8.984 10.3551 8.984C11.1397 8.984 11.7814 9.204 12.2801 9.644C12.7861 10.0767 13.0391 10.678 13.0391 11.448C13.0391 12.284 12.7677 12.9513 12.2251 13.45C11.6824 13.9487 11.0077 14.198 10.2011 14.198C9.56307 14.198 9.01673 14.0477 8.56207 13.747C8.1074 13.4463 7.7774 13.0283 7.57207 12.493L8.77107 12.053C8.88107 12.361 9.0644 12.6103 9.32107 12.801C9.58507 12.9843 9.8894 13.076 10.2341 13.076C10.6447 13.076 10.9894 12.944 11.2681 12.68C11.5467 12.4087 11.6861 12.0457 11.6861 11.591C11.6861 11.041 11.5174 10.645 11.1801 10.403C10.8501 10.161 10.4394 10.04 9.94807 10.04C9.2954 10.04 8.6904 10.183 8.13307 10.469L8.26507 6.212H12.6981Z" fill="#414140"/>
</svg>
