<svg width="21" height="21" viewBox="0 0 21 21" fill="none" xmlns="http://www.w3.org/2000/svg">
<circle cx="10.5" cy="10.5" r="10.5" fill="#FFDA00"/>
<path d="M10.3881 6.212H11.9941L10.0031 9.094L10.0141 9.105C10.2267 9.017 10.5017 8.973 10.8391 8.973C11.5284 8.973 12.1151 9.215 12.5991 9.699C13.0831 10.1757 13.3251 10.766 13.3251 11.47C13.3251 12.284 13.0537 12.944 12.5111 13.45C11.9757 13.9487 11.3011 14.198 10.4871 14.198C9.67307 14.198 8.99473 13.9413 8.45207 13.428C7.9094 12.9147 7.63807 12.2803 7.63807 11.525C7.63807 11.107 7.7004 10.733 7.82507 10.403C7.95707 10.0657 8.1624 9.67333 8.44107 9.226L10.3881 6.212ZM8.98007 11.558C8.98007 11.976 9.11573 12.3353 9.38707 12.636C9.66573 12.9293 10.0287 13.076 10.4761 13.076C10.9234 13.076 11.2827 12.9367 11.5541 12.658C11.8327 12.372 11.9721 11.998 11.9721 11.536C11.9721 11.096 11.8364 10.733 11.5651 10.447C11.2937 10.161 10.9381 10.018 10.4981 10.018C10.0507 10.018 9.68407 10.161 9.39807 10.447C9.1194 10.733 8.98007 11.1033 8.98007 11.558Z" fill="#414140"/>
</svg>
